<svg width="32" height="32" viewBox="0 0 32 32" fill="none" xmlns="http://www.w3.org/2000/svg">
<path d="M19.8214 25.7933C19.9982 26.0996 20.0462 26.4635 19.9546 26.8051C19.8631 27.1466 19.6397 27.4378 19.3334 27.6147L17.6668 28.5773C17.16 28.8699 16.5852 29.0239 16.0001 29.0239C15.415 29.0239 14.8402 28.8699 14.3334 28.5773L12.6668 27.6133C12.363 27.4353 12.142 27.1443 12.0521 26.8039C11.9621 26.4635 12.0104 26.1013 12.1864 25.7964C12.3625 25.4915 12.652 25.2686 12.9918 25.1763C13.3315 25.0841 13.694 25.13 14.0001 25.304L15.6668 26.2667C15.7681 26.3252 15.8831 26.356 16.0001 26.356C16.1171 26.356 16.2321 26.3252 16.3334 26.2667L18.0001 25.304C18.3063 25.1272 18.6703 25.0793 19.0118 25.1708C19.3534 25.2623 19.6446 25.4871 19.8214 25.7933ZM26.3921 14.8253C26.7457 14.8253 27.0849 14.9658 27.3349 15.2158C27.585 15.4659 27.7254 15.805 27.7254 16.1587V20.8453C27.7254 21.4304 27.5714 22.0052 27.2788 22.5119C26.9863 23.0187 26.5655 23.4394 26.0588 23.732L22.0001 26.076C21.8484 26.1635 21.6809 26.2203 21.5072 26.2432C21.3336 26.266 21.1571 26.2544 20.9879 26.209C20.8187 26.1636 20.6601 26.0854 20.5212 25.9787C20.3822 25.872 20.2657 25.739 20.1781 25.5873C20.0906 25.4356 20.0337 25.2681 20.0109 25.0945C19.9881 24.9208 19.9997 24.7443 20.0451 24.5751C20.0905 24.4059 20.1687 24.2473 20.2754 24.1084C20.3821 23.9694 20.5151 23.8529 20.6668 23.7653L24.7254 21.4227C24.8268 21.3641 24.9109 21.28 24.9694 21.1786C25.028 21.0773 25.0588 20.9623 25.0588 20.8453V16.1587C25.0588 15.805 25.1992 15.4659 25.4493 15.2158C25.6993 14.9658 26.0385 14.8253 26.3921 14.8253ZM5.6081 14.8253C5.96173 14.8253 6.30087 14.9658 6.55091 15.2158C6.80096 15.4659 6.94144 15.805 6.94144 16.1587V20.8453C6.94144 20.9623 6.97225 21.0773 7.03076 21.1786C7.08927 21.28 7.17343 21.3641 7.27477 21.4227L11.3334 23.7653C11.6372 23.9434 11.8582 24.2344 11.9482 24.5748C12.0381 24.9152 11.9899 25.2773 11.8138 25.5823C11.6378 25.8872 11.3482 26.1101 11.0085 26.2023C10.6687 26.2946 10.3062 26.2487 10.0001 26.0747L5.94144 23.7333C5.43472 23.4408 5.01393 23.02 4.72137 22.5133C4.42881 22.0066 4.27479 21.4318 4.27477 20.8467V16.16C4.27477 15.8064 4.41525 15.4672 4.6653 15.2172C4.91534 14.9671 5.25448 14.8253 5.6081 14.8253ZM20.8334 9.95199L20.9908 10.0293L23.0094 11.1733C23.1924 11.2772 23.3482 11.423 23.4641 11.5986C23.58 11.7743 23.6526 11.9749 23.6761 12.184L23.6841 12.344L23.6668 14.664C23.665 14.8696 23.6157 15.0721 23.5227 15.2555C23.4298 15.4389 23.2956 15.5984 23.1308 15.7213L23.0001 15.808L19.3334 17.924V22.16C19.3333 22.366 19.2854 22.5691 19.1936 22.7535C19.1017 22.9379 18.9684 23.0985 18.8041 23.2227L18.6748 23.3107L16.6748 24.484C16.4963 24.5887 16.296 24.6504 16.0895 24.6643C15.8831 24.6782 15.6763 24.6438 15.4854 24.564L15.3254 24.484L13.3254 23.3107C13.1477 23.2063 12.9966 23.0622 12.8839 22.8896C12.7712 22.717 12.7001 22.5207 12.6761 22.316L12.6668 22.16V17.924L9.0001 15.808C8.82178 15.705 8.66975 15.562 8.55593 15.3904C8.44212 15.2187 8.36961 15.023 8.3441 14.8187L8.33344 14.6627L8.3161 12.3427C8.31473 12.1325 8.36306 11.925 8.45713 11.7371C8.55121 11.5492 8.68837 11.3861 8.85744 11.2613L8.99077 11.1733L11.0081 10.0293C11.1844 9.92908 11.3812 9.87037 11.5836 9.85766C11.786 9.84495 11.9887 9.87858 12.1761 9.95599L12.3334 10.0333L16.0001 12.1507L19.6668 10.0333C19.8424 9.93221 20.0387 9.87246 20.2409 9.8586C20.443 9.84473 20.6457 9.87713 20.8334 9.95332V9.95199ZM20.3401 12.7253L16.6668 14.8453C16.4901 14.9475 16.2922 15.0077 16.0886 15.0213C15.8849 15.035 15.6809 15.0017 15.4921 14.924L15.3321 14.844L11.6614 12.724L10.9881 13.1067L10.9948 13.88L14.6668 16C14.8463 16.1037 14.9993 16.2478 15.1134 16.4209C15.2275 16.5941 15.2996 16.7914 15.3241 16.9973L15.3334 17.1547V21.396L16.0001 21.788L16.6668 21.396V17.1547C16.6667 16.9473 16.715 16.7428 16.8078 16.5574C16.9006 16.372 17.0354 16.2108 17.2014 16.0867L17.3334 16L21.0054 13.88L21.0121 13.1067L20.3388 12.7253H20.3401ZM23.4961 17.604L23.5054 17.6933V19.5627C23.5057 19.7702 23.4575 19.975 23.3647 20.1606C23.2719 20.3463 23.137 20.5077 22.9708 20.632L22.8388 20.7187L21.2188 21.6533C21.1645 21.6848 21.1036 21.703 21.041 21.7066C20.9784 21.7102 20.9159 21.699 20.8584 21.674C20.8009 21.6489 20.7501 21.6107 20.7101 21.5624C20.6701 21.5142 20.642 21.4571 20.6281 21.396L20.6188 21.3067V19.436C20.6189 19.2289 20.6673 19.0247 20.7601 18.8395C20.8529 18.6544 20.9876 18.4934 21.1534 18.3693L21.2868 18.2813L22.9054 17.3467C22.9597 17.3152 23.0206 17.2969 23.0832 17.2934C23.1458 17.2898 23.2083 17.3009 23.2658 17.326C23.3233 17.351 23.3741 17.3892 23.4141 17.4375C23.4541 17.4858 23.4822 17.5428 23.4961 17.604ZM9.09344 17.3467L10.7134 18.2813C10.9161 18.3983 11.0844 18.5667 11.2015 18.7693C11.3185 18.972 11.3801 19.2019 11.3801 19.436V21.3067C11.3801 21.3769 11.3617 21.4459 11.3266 21.5067C11.2915 21.5676 11.241 21.6181 11.1802 21.6533C11.1194 21.6884 11.0504 21.7069 10.9802 21.7069C10.9099 21.7069 10.8409 21.6884 10.7801 21.6533L9.1601 20.72C8.95722 20.6029 8.78878 20.4343 8.67175 20.2314C8.55471 20.0285 8.49321 19.7983 8.49344 19.564V17.6933C8.49339 17.6231 8.51184 17.5541 8.54693 17.4932C8.58202 17.4324 8.63251 17.3819 8.69333 17.3467C8.75414 17.3116 8.82314 17.2931 8.89337 17.2931C8.96361 17.2931 9.03261 17.3115 9.09344 17.3467ZM24.3308 7.27066L26.0574 8.26799C26.5642 8.56054 26.9849 8.98132 27.2775 9.48804C27.5701 9.99475 27.7241 10.5695 27.7241 11.1547V13.0787C27.7241 13.4323 27.5836 13.7714 27.3336 14.0215C27.0835 14.2715 26.7444 14.412 26.3908 14.412C26.0371 14.412 25.698 14.2715 25.448 14.0215C25.1979 13.7714 25.0574 13.4323 25.0574 13.0787V11.1547C25.0574 11.0376 25.0266 10.9227 24.9681 10.8213C24.9096 10.72 24.8254 10.6358 24.7241 10.5773L22.9974 9.57999C22.6937 9.40192 22.4727 9.11094 22.3827 8.77055C22.2927 8.43015 22.341 8.06798 22.5171 7.76306C22.6931 7.45815 22.9826 7.23524 23.3224 7.14299C23.6622 7.05074 24.0247 7.09663 24.3308 7.27066ZM9.4281 7.79332C9.60491 8.09956 9.65282 8.46349 9.5613 8.80506C9.46979 9.14662 9.24633 9.43784 8.9401 9.61466L7.27344 10.5773C7.17209 10.6358 7.08794 10.72 7.02942 10.8213C6.97091 10.9227 6.94011 11.0376 6.9401 11.1547V13.0787C6.9401 13.4323 6.79963 13.7714 6.54958 14.0215C6.29953 14.2715 5.96039 14.412 5.60677 14.412C5.25315 14.412 4.91401 14.2715 4.66396 14.0215C4.41391 13.7714 4.27344 13.4323 4.27344 13.0787V11.1547C4.27335 10.5692 4.42747 9.99403 4.72028 9.48705C5.0131 8.98007 5.43428 8.55915 5.94144 8.26666L7.6081 7.30399C7.91434 7.12719 8.27827 7.07927 8.61984 7.17079C8.9614 7.26231 9.25262 7.48576 9.42944 7.79199L9.4281 7.79332ZM16.6668 7.71999L18.2868 8.65466C18.3477 8.68973 18.3983 8.74024 18.4335 8.8011C18.4687 8.86196 18.4872 8.93102 18.4872 9.00132C18.4872 9.07162 18.4687 9.14069 18.4335 9.20155C18.3983 9.26241 18.3477 9.31292 18.2868 9.34799L16.6668 10.28C16.4641 10.397 16.2342 10.4586 16.0001 10.4586C15.7661 10.4586 15.5361 10.397 15.3334 10.28L13.7134 9.34532C13.6525 9.31025 13.6019 9.25974 13.5667 9.19888C13.5315 9.13802 13.513 9.06896 13.513 8.99866C13.513 8.92835 13.5315 8.85929 13.5667 8.79843C13.6019 8.73757 13.6525 8.68706 13.7134 8.65199L15.3334 7.71999C15.5361 7.60297 15.7661 7.54136 16.0001 7.54136C16.2342 7.54136 16.4641 7.60297 16.6668 7.71999ZM17.6668 3.42399L21.7254 5.76666C22.0319 5.94347 22.2555 6.23476 22.3471 6.57645C22.4388 6.91814 22.3909 7.28224 22.2141 7.58866C22.0373 7.89507 21.746 8.1187 21.4043 8.21034C21.0626 8.30198 20.6985 8.25413 20.3921 8.07732L16.3334 5.73199C16.2321 5.67348 16.1171 5.64267 16.0001 5.64267C15.8831 5.64267 15.7681 5.67348 15.6668 5.73199L11.6081 8.07466C11.4564 8.16359 11.2886 8.22163 11.1144 8.24545C10.9402 8.26927 10.763 8.2584 10.593 8.21346C10.423 8.16851 10.2635 8.09038 10.1239 7.98357C9.98418 7.87676 9.86701 7.74337 9.77909 7.59109C9.69116 7.43881 9.63423 7.27064 9.61157 7.09627C9.5889 6.9219 9.60095 6.74476 9.64702 6.57507C9.6931 6.40537 9.77228 6.24646 9.88001 6.10749C9.98775 5.96852 10.1219 5.85223 10.2748 5.76532L14.3334 3.42266C14.8402 3.13009 15.415 2.97607 16.0001 2.97607C16.5852 2.97607 17.16 3.13009 17.6668 3.42266V3.42399Z" fill="white"/>
</svg>
